<?xml version="1.0" encoding="UTF-8"?><svg id="Layer_1" xmlns="http://www.w3.org/2000/svg" width="628.76" height="349.78" viewBox="0 0 628.76 349.78"><defs><style>.cls-1{fill:#eeece9;}.cls-1,.cls-2{stroke-width:0px;}.cls-2{fill:#231f20;}</style></defs><rect class="cls-2" x="234.57" y="1.52" width="47.77" height="106.11"/><path class="cls-2" d="M0,347.79L135.05,1.52h117.76l137.9,346.27h-108.28l-24.17-67.84H120.84l-24.17,67.84H0ZM234.57,213.74l-44.31-144.38-48.57,144.38h92.88Z"/><path class="cls-2" d="M526.57,175.09c0,38.82-9.3,66.32-27.5,83.3-17.79,16.58-46.1,24.67-84.92,24.67h-34.37V66.31h34.37c38.82,0,67.12,8.09,84.92,24.67,18.2,17.39,27.5,45.29,27.5,84.11Z"/><path class="cls-2" d="M300.42.05h134.14c129.47,0,194.2,58.25,194.2,174.76s-64.73,174.52-194.2,174.52h-134.14V.05Z"/><path class="cls-1" d="M423.05,0h-140.72v349.78h140.72c135.87,0,203.8-58.23,203.8-174.69S558.92,0,423.05,0ZM499.07,258.39c-17.79,16.58-46.1,24.67-84.92,24.67h-34.37V66.31h34.37c38.82,0,67.12,8.09,84.92,24.67,18.2,17.39,27.5,45.29,27.5,84.11s-9.3,66.32-27.5,83.3Z"/><path class="cls-2" d="M349.37,278.31v-9.72c0-9.38,4.03-14.08,12.08-14.08s12.06,4.69,12.06,14.08v9.72h-24.15ZM353.94,271.6h14.98v-2.37c0-2.7-.57-4.65-1.7-5.88-1.17-1.27-3.09-1.9-5.76-1.9s-4.6.63-5.79,1.9c-1.15,1.22-1.72,3.18-1.72,5.88v2.37Z"/><path class="cls-2" d="M368.08,234.33c3.9.57,5.84,3.45,5.84,8.66,0,5.76-2.89,8.64-8.66,8.64-2.86,0-5.07-.75-6.64-2.25-1.57-1.5-2.35-3.67-2.35-6.52,0-5.73,3.04-8.59,9.12-8.59.55,0,.92.02,1.11.05v11.62c2.68,0,4.03-1.08,4.03-3.22,0-1.53-.82-2.45-2.46-2.75v-5.63ZM363.06,245.87v-5.96c-2.28.2-3.42,1.14-3.42,2.83,0,1.79,1.14,2.83,3.42,3.13Z"/><path class="cls-2" d="M368.12,225.72h.21c1.47,0,2.21-.68,2.21-2.03s-.56-2.06-1.69-2.06c-.73,0-1.4,1.09-2,3.26-.03.1-.07.22-.11.38-.56,2.05-1.07,3.46-1.56,4.21-.85,1.34-2.07,2.01-3.67,2.01-1.88,0-3.27-.88-4.17-2.63-.71-1.36-1.06-3.08-1.06-5.14s.37-3.84,1.1-5.14c.92-1.65,2.35-2.47,4.31-2.47h.13v5.76h-.2c-1.47,0-2.21.68-2.21,2.05,0,1.21.46,1.82,1.38,1.82.86,0,1.62-1.26,2.26-3.78l.21-.83c.48-1.83.98-3.1,1.49-3.81.79-1.08,1.95-1.62,3.5-1.62,3.79,0,5.68,2.8,5.68,8.41,0,5.16-1.87,7.74-5.6,7.74h-.21v-6.11Z"/><path class="cls-2" d="M353.87,212.34h-4.5v-6.37h4.5v6.37ZM373.52,212.25h-16.83v-6.2h16.83v6.2Z"/><path class="cls-2" d="M356.69,189.66v-5.91c1.65.19,2.96.28,3.93.28h11.52c1.35,0,2.42.13,3.19.38,1.02.32,1.89.91,2.64,1.77,1.57,1.83,2.36,4.43,2.36,7.78,0,2.14-.43,3.9-1.28,5.29-1.03,1.67-2.55,2.52-4.56,2.55v-5.79h.11c.67,0,1.19-.27,1.57-.82.34-.49.51-1.08.51-1.77,0-2.24-1.29-3.36-3.86-3.36h-2.14c1.58,1.25,2.37,3.03,2.37,5.34,0,2.49-.8,4.35-2.39,5.58-1.43,1.12-3.43,1.69-5.99,1.69s-4.44-.55-5.91-1.64c-1.67-1.22-2.5-3.02-2.5-5.4s.91-4.37,2.72-5.79l-2.28-.16ZM364.56,196.22c3.15,0,4.73-1,4.73-3.01,0-1.12-.54-1.95-1.62-2.47-.82-.39-1.86-.59-3.11-.59-3.15,0-4.73,1-4.73,3s1.58,3.08,4.73,3.08Z"/><path class="cls-2" d="M373.52,179.65h-13.18c-.67,0-1.88.09-3.65.26v-6.3l2.41-.07c-1.88-1.09-2.82-2.88-2.82-5.37,0-4.18,2.11-6.27,6.34-6.27h10.9v6.2h-8.58c-1.48,0-2.52.1-3.09.29-1.07.35-1.6,1.1-1.6,2.26,0,1.85,1.18,2.78,3.55,2.78h9.72v6.2Z"/><path class="cls-1" d="M397.58,257.7h.23c2.8,0,4.89,1.21,6.27,3.63,1.1,1.94,1.65,4.43,1.65,7.46,0,3.79-1.05,6.71-3.14,8.76-2.1,2.05-5.04,3.08-8.84,3.08-4.12,0-7.28-1.01-9.48-3.03-2.28-2.08-3.42-5.17-3.42-9.25,0-3.01.56-5.4,1.69-7.17,1.34-2.12,3.43-3.24,6.25-3.36v6.84c-1.07.07-1.89.5-2.47,1.31-.51.72-.77,1.64-.77,2.75,0,3.31,2.68,4.96,8.04,4.96,4.94,0,7.42-1.67,7.42-5.03,0-1.15-.28-2.08-.83-2.8-.61-.77-1.47-1.2-2.59-1.26v-6.91Z"/><path class="cls-1" d="M396.94,255.01c-2.94,0-5.17-.89-6.71-2.68-1.43-1.68-2.14-4.02-2.14-7.01s.72-5.32,2.16-6.99c1.53-1.78,3.76-2.67,6.69-2.67s5.17.89,6.7,2.67c1.44,1.67,2.16,4,2.16,6.99s-.72,5.33-2.16,7.01c-1.53,1.79-3.76,2.68-6.7,2.68ZM396.91,248.48c1.56,0,2.73-.15,3.52-.46,1.23-.48,1.85-1.37,1.85-2.67s-.61-2.2-1.83-2.68c-.8-.3-1.98-.46-3.54-.46s-2.75.15-3.54.46c-1.24.49-1.87,1.39-1.87,2.68,0,2.08,1.8,3.13,5.4,3.13Z"/><path class="cls-1" d="M405.35,232.13h-13.18c-.67,0-1.88.09-3.65.26v-6.3l2.41-.07c-1.88-1.09-2.82-2.88-2.82-5.37,0-4.18,2.11-6.27,6.34-6.27h10.9v6.2h-8.58c-1.48,0-2.52.1-3.09.29-1.07.35-1.6,1.1-1.6,2.26,0,1.86,1.18,2.78,3.55,2.78h9.72v6.2Z"/><path class="cls-1" d="M398.89,193.32c2.29.08,4.05,1,5.27,2.78,1.07,1.56,1.6,3.55,1.6,5.96,0,2.84-.79,5.03-2.38,6.59s-3.8,2.33-6.64,2.33-4.96-.82-6.47-2.47c-1.44-1.59-2.16-3.81-2.16-6.65,0-2.32.46-4.22,1.39-5.7,1.11-1.76,2.76-2.65,4.94-2.68v6.2c-1.92,0-2.88.75-2.88,2.24,0,1.79,1.72,2.68,5.17,2.68s5.42-.89,5.42-2.68c0-1.5-1.09-2.24-3.27-2.24v-6.37Z"/><path class="cls-1" d="M399.92,173.51c3.9.57,5.84,3.45,5.84,8.66,0,5.76-2.89,8.64-8.66,8.64-2.86,0-5.07-.75-6.64-2.25-1.57-1.5-2.35-3.67-2.35-6.52,0-5.73,3.04-8.59,9.12-8.59.55,0,.92.02,1.11.05v11.62c2.68,0,4.03-1.07,4.03-3.22,0-1.53-.82-2.44-2.46-2.75v-5.63ZM394.89,185.05v-5.96c-2.28.2-3.42,1.14-3.42,2.83,0,1.79,1.14,2.83,3.42,3.13Z"/><path class="cls-1" d="M411.72,169.94h-19.27c-.97,0-2.28.09-3.93.28v-6.24l2.21-.03c-1.77-1.49-2.65-3.39-2.65-5.68,0-2.42.91-4.25,2.72-5.47,1.55-1.05,3.6-1.57,6.14-1.57s4.71.54,6.22,1.62c1.73,1.24,2.6,3.13,2.6,5.66,0,2.17-.77,3.9-2.32,5.19h8.28v6.24ZM396.84,163.83c3.42,0,5.12-1.06,5.12-3.18,0-1.92-1.71-2.88-5.12-2.88s-5.14,1-5.14,3.01c0,1.12.62,1.95,1.85,2.47.9.38,1.99.57,3.29.57Z"/><path class="cls-1" d="M405.35,136.3c.22,1.57.33,2.97.33,4.19,0,3.86-1.6,5.79-4.81,5.79h-8.32v3.14h-4.03v-3.14h-2.62l-2.54-6.07h5.16v-3.91h4.03v3.99h7.1c1.28,0,1.92-.76,1.92-2.27,0-.17-.02-.47-.05-.88l-.07-.85h3.9Z"/><path class="cls-1" d="M399.95,128.21h.21c1.47,0,2.21-.68,2.21-2.03s-.56-2.06-1.69-2.06c-.73,0-1.4,1.09-2,3.26-.03.1-.07.22-.11.38-.56,2.05-1.07,3.45-1.56,4.21-.85,1.34-2.07,2.01-3.67,2.01-1.88,0-3.27-.88-4.17-2.64-.71-1.36-1.06-3.08-1.06-5.14s.37-3.84,1.1-5.14c.92-1.65,2.35-2.47,4.31-2.47h.13v5.76h-.2c-1.47,0-2.21.68-2.21,2.05,0,1.21.46,1.82,1.38,1.82.86,0,1.62-1.26,2.26-3.78l.21-.83c.48-1.83.98-3.1,1.49-3.81.79-1.08,1.95-1.62,3.5-1.62,3.79,0,5.68,2.8,5.68,8.41,0,5.16-1.87,7.74-5.6,7.74h-.21v-6.11Z"/></svg>